<?xml version="1.0" standalone="no"?>
<!DOCTYPE svg PUBLIC "-//W3C//DTD SVG 20010904//EN"
 "http://www.w3.org/TR/2001/REC-SVG-20010904/DTD/svg10.dtd">
<svg version="1.0" xmlns="http://www.w3.org/2000/svg"
 width="1389.000000pt" height="1389.000000pt" viewBox="0 0 1389.000000 1389.000000"
 preserveAspectRatio="xMidYMid meet">
<metadata>
Created by potrace 1.11, written by Peter Selinger 2001-2013
</metadata>
<g transform="translate(0.000000,1389.000000) scale(0.100000,-0.100000)"
fill="#000000" stroke="none">
<path d="M6318 12465 c-1 -2 -39 -6 -83 -9 -44 -3 -98 -8 -120 -11 -51 -6
-185 -26 -206 -30 -9 -2 -34 -6 -55 -9 -22 -4 -47 -9 -56 -12 -9 -3 -25 -6
-35 -8 -138 -27 -363 -97 -521 -162 -91 -38 -329 -156 -372 -184 -14 -10 -70
-47 -125 -83 -152 -99 -295 -217 -451 -372 -136 -135 -218 -226 -279 -310 -16
-22 -32 -42 -35 -45 -9 -7 -81 -114 -128 -191 -215 -353 -337 -734 -368 -1150
-12 -169 -9 -322 11 -519 34 -338 157 -696 344 -1005 194 -318 479 -629 832
-907 85 -67 211 -158 219 -158 4 0 10 -4 12 -8 4 -10 422 -291 468 -315 8 -4
42 -25 75 -46 128 -83 664 -403 835 -499 25 -13 74 -42 110 -62 65 -38 82 -47
195 -110 33 -18 168 -95 300 -170 132 -75 260 -148 285 -162 268 -150 766
-451 940 -568 646 -435 1015 -1027 1013 -1625 0 -199 -43 -433 -105 -575 -158
-361 -395 -636 -733 -847 -124 -78 -405 -197 -514 -218 -12 -2 -31 -7 -41 -10
-36 -11 -233 -50 -300 -59 -204 -27 -668 -28 -820 -2 -14 3 -52 8 -85 11 -33
3 -69 8 -80 10 -11 3 -31 7 -45 9 -246 44 -540 135 -755 234 -237 110 -500
269 -681 414 -177 140 -380 359 -492 528 -30 47 -63 97 -73 112 -28 40 -152
301 -192 403 -57 144 -148 424 -189 585 -49 190 -114 486 -144 655 -3 16 -7
32 -10 34 -9 9 -275 7 -280 -1 -4 -6 -8 -3551 -4 -3620 0 -3 64 -6 143 -6
l143 0 18 96 c21 116 67 260 103 320 90 156 283 218 513 166 14 -3 36 -8 50
-10 51 -9 339 -87 465 -125 72 -22 135 -42 140 -43 6 -2 17 -6 25 -9 8 -3 69
-22 135 -42 66 -20 138 -43 160 -50 318 -109 787 -232 955 -251 14 -1 59 -7
100 -13 288 -40 859 -49 1110 -17 14 2 54 7 90 11 36 4 72 8 80 10 8 2 35 6
60 10 101 15 288 56 410 89 729 201 1364 665 1800 1316 165 245 321 617 374
890 2 14 9 48 15 77 6 29 13 74 16 100 4 26 8 59 11 73 22 136 22 555 -1 680
-2 14 -7 41 -9 60 -79 558 -365 1115 -793 1547 -138 139 -217 208 -379 330
-103 77 -403 280 -501 339 -18 10 -119 71 -225 135 -106 64 -209 126 -228 137
-19 11 -75 43 -125 72 -88 51 -470 265 -590 330 -33 18 -82 45 -110 60 -57 31
-154 84 -265 143 -41 22 -109 59 -150 82 -41 23 -106 59 -145 80 -38 21 -81
45 -95 54 -14 9 -38 23 -55 31 -16 8 -81 45 -143 83 -62 37 -115 67 -118 67
-2 0 -35 20 -74 45 -39 25 -72 45 -74 45 -6 0 -232 140 -321 199 -38 25 -78
50 -88 56 -38 22 -229 154 -362 251 -575 419 -828 749 -909 1189 -19 106 -15
384 7 478 9 37 19 81 22 99 3 17 22 73 41 124 172 460 608 871 1092 1030 118
39 240 70 317 80 28 3 52 7 55 9 12 7 214 19 325 19 115 0 322 -11 334 -18 3
-2 35 -7 70 -10 36 -4 67 -9 70 -11 4 -2 25 -6 48 -10 116 -17 384 -97 543
-162 172 -70 452 -220 575 -308 255 -182 474 -391 627 -600 201 -274 350 -589
473 -1000 15 -49 29 -96 30 -105 2 -8 15 -60 28 -115 24 -94 71 -314 81 -380
6 -34 12 -71 27 -170 6 -38 14 -88 18 -109 l6 -40 133 -1 c73 0 137 2 143 6 8
4 11 537 11 1810 -1 992 -1 1814 -1 1827 -1 22 -3 22 -143 22 l-143 0 -34
-124 c-66 -244 -148 -371 -282 -434 -162 -78 -324 -63 -634 58 -60 23 -137 55
-170 70 -315 144 -798 302 -1081 354 -44 8 -88 17 -99 19 -11 2 -42 8 -70 11
-27 4 -61 9 -75 11 -14 2 -50 6 -81 10 -31 3 -67 8 -80 11 -25 6 -595 15 -601
9z"/>
</g>
</svg>
