<svg id="Layer_1" enable-background="new 0 0 512.029 512.029" height="512" viewBox="0 0 512.029 512.029" width="512" xmlns="http://www.w3.org/2000/svg"><g><path d="m510.111 2.614c-1.417-1.592-3.443-2.505-5.574-2.514l-26.299-.1c-.009 0-.019 0-.029 0-3.694 0-6.841 2.692-7.41 6.345-.141.904-14.135 88.672-51.46 157.159-10.013-4.193-21.39-1.328-28.321 7.135-37.543 45.845-88.942 74.378-152.77 84.808-45.785 7.481-98.583 5.689-156.923-5.329-38.694-7.307-76.403 21.132-80.026 60.265-4.396 47.48.449 113.625 48.495 159.111 32.906 31.152 72.791 42.537 109.583 42.536 20.821 0 40.655-3.647 57.664-9.421 177.369-60.207 246.212-236.713 263.087-289.376 3.112-9.711-.06-19.891-7.465-26.123 7.618-19.564 14.773-44.104 21.295-73.105 2.127-9.46-12.507-12.753-14.635-3.291-6.201 27.575-12.945 50.921-20.083 69.542l-25.996-10.914c32.574-60.379 47.363-132.58 51.288-154.316l11.496.044c-1.523 11.754-4.745 34.799-9.717 61.499-1.776 9.533 12.971 12.279 14.746 2.746 7.286-39.119 10.869-70.558 10.904-70.871.239-2.12-.434-4.238-1.85-5.83zm-44.268 206.041c-16.334 50.975-82.896 221.796-253.624 279.749-42.925 14.571-105.427 14.394-152.113-29.803-43.669-41.342-47.96-102.669-43.871-146.836 2.811-30.36 32.256-52.583 62.306-46.908 60.061 11.343 114.608 13.157 162.125 5.393 67.54-11.036 122.03-41.353 161.957-90.107 2.693-3.289 7.086-4.414 10.932-2.8l46.915 19.697c4.57 1.918 6.88 6.912 5.373 11.615z"/><path d="m254.395 353.676c-47.156 10.389-111.398 9.461-190.938-2.757-14.246-2.191-27.106 10.973-24.349 25.224 2.102 10.861 5.437 21.14 9.912 30.549 20.957 44.057 67.082 70.158 115.27 70.158 23.41 0 53.806-8.451 85.643-23.819 27.94-13.486 54.966-31.373 72.293-47.847 6.425-6.109 6.526-16.562.333-22.871-30.657-31.23-55.866-31.346-68.164-28.637zm57.496 40.637c-16.262 15.461-41.861 32.362-68.479 45.21-29.845 14.406-57.921 22.327-79.112 22.327-42.461 0-83.238-22.714-101.735-61.602-3.933-8.267-6.87-17.336-8.731-26.955-.171-5.039 2.277-7.556 7.344-7.549 81.379 12.5 147.471 13.369 196.443 2.579 22.397-4.934 45.389 15.488 54.234 24.498.428.503.439 1 .036 1.492z"/><path d="m419.444 205.596c-7.901-2.196-16.473.374-21.842 6.543-19.986 22.967-98.381 97.042-268.123 85.881-9.678-.622-10.66 14.332-.983 14.968 12.063.793 23.672 1.166 34.869 1.166 152.74-.005 225.865-69.543 245.553-92.168 4.408-5.063 13.293-.196 10.747 6.514-12.764 33.639-47.545 80.803-67.142 105.923-11.531 14.781-29.872 11.912-43.565 2.459-16.6-10.494-36.536-14.566-56.133-11.468-76.836 12.146-154.739 1.114-184.667-4.193-9.524-1.689-7.033-16.404 2.586-14.856 6.367 1.026 12.779 1.965 19.057 2.79 9.614 1.254 11.569-13.61 1.953-14.872-6.133-.806-12.399-1.723-18.623-2.726-28.496-4.593-36.005 39.396-7.593 44.434 30.672 5.439 110.55 16.739 189.627 4.24 16.001-2.529 32.257.784 45.775 9.331 20.375 13.752 47.007 15.113 63.408-5.912 24.573-31.5 56.55-76.123 69.339-109.828 4.363-11.496-2.348-24.919-14.243-28.226z"/></g></svg>