<?xml version="1.0" encoding="iso-8859-1"?>
<!-- Generator: Adobe Illustrator 19.0.0, SVG Export Plug-In . SVG Version: 6.00 Build 0)  -->
<svg version="1.1" id="Capa_1" xmlns="http://www.w3.org/2000/svg" xmlns:xlink="http://www.w3.org/1999/xlink" x="0px" y="0px"
	 viewBox="0 0 512 512" style="enable-background:new 0 0 512 512;" xml:space="preserve">
<g>
	<g>
		<path d="M256,0C120.725,0,10.667,110.059,10.667,245.333S120.725,490.667,256,490.667c5.888,0,10.667-4.779,10.667-10.667
			c0-5.888-4.779-10.667-10.667-10.667c-123.52,0-224-100.48-224-224s100.48-224,224-224s224,100.48,224,224.021
			c0,43.712-12.608,86.059-36.416,122.475c-3.221,4.928-1.835,11.541,3.093,14.763c4.864,3.2,11.52,1.856,14.741-3.093
			c26.133-39.915,39.915-86.293,39.915-134.165C501.333,110.059,391.275,0,256,0z"/>
	</g>
</g>
<g>
	<g>
		<path d="M370.987,153.323c-3.691-4.565-10.368-5.333-14.997-1.664l-89.323,71.467V53.333c0-5.888-4.779-10.667-10.667-10.667
			s-10.667,4.779-10.667,10.667v192c0,4.096,2.347,7.829,6.037,9.621c1.493,0.704,3.072,1.045,4.629,1.045
			c2.368,0,4.736-0.789,6.656-2.347l106.667-85.333C373.931,164.629,374.656,157.931,370.987,153.323z"/>
	</g>
</g>
<g>
	<g>
		<path d="M298.667,362.667h-22.72l31.595-47.424c3.264-4.907,1.92-11.52-2.965-14.784c-4.864-3.243-11.499-1.941-14.784,2.965
			l-42.667,64c-2.176,3.264-2.389,7.467-0.512,10.944c1.835,3.456,5.44,5.632,9.387,5.632h32v10.667
			c0,5.888,4.779,10.667,10.667,10.667s10.667-4.779,10.667-10.667v-21.333C309.333,367.445,304.555,362.667,298.667,362.667z"/>
	</g>
</g>
<g>
	<g>
		<path d="M234.667,384h-16.917l9.387-9.387c11.733-11.733,18.197-27.349,18.197-43.947c0-17.643-14.357-32-32-32
			c-17.643,0-32,14.357-32,32c0,5.888,4.779,10.667,10.667,10.667s10.667-4.779,10.667-10.667S207.467,320,213.333,320
			C219.2,320,224,324.8,224,330.688c0,10.901-4.267,21.12-11.947,28.821l-27.605,27.605c-3.029,3.051-3.947,7.637-2.304,11.627
			c1.643,3.989,5.547,6.592,9.856,6.592h42.667c5.888,0,10.667-4.779,10.667-10.667S240.555,384,234.667,384z"/>
	</g>
</g>
<g>
	<g>
		<path d="M388.331,299.584c-5.397-2.368-11.691,0.021-14.08,5.419l-85.333,192c-2.389,5.376,0.043,11.691,5.419,14.08
			c1.408,0.619,2.88,0.917,4.331,0.917c4.075,0,7.979-2.347,9.749-6.336l85.333-192
			C396.139,308.288,393.707,301.973,388.331,299.584z"/>
	</g>
</g>
<g>
	<g>
		<path d="M435.755,410.389c-1.963-3.136-5.397-5.056-9.088-5.056H384c-5.888,0-10.667,4.779-10.667,10.667
			c0,5.888,4.779,10.667,10.667,10.667h25.408l-34.965,69.888c-2.624,5.269-0.491,11.669,4.779,14.315
			C380.779,511.637,382.4,512,384,512c3.904,0,7.659-2.155,9.536-5.909l42.667-85.333
			C437.867,417.472,437.696,413.525,435.755,410.389z"/>
	</g>
</g>
<g>
</g>
<g>
</g>
<g>
</g>
<g>
</g>
<g>
</g>
<g>
</g>
<g>
</g>
<g>
</g>
<g>
</g>
<g>
</g>
<g>
</g>
<g>
</g>
<g>
</g>
<g>
</g>
<g>
</g>
</svg>
